<?xml version="1.0" ?><svg id="Layer_1" style="enable-background:new 0 0 512 512;" version="1.1" viewBox="0 0 512 512" xml:space="preserve" xmlns="http://www.w3.org/2000/svg" xmlns:xlink="http://www.w3.org/1999/xlink"><style type="text/css">
	.st0{fill:#2A388F;}
	.st1{fill:#F5CB29;}
</style><g id="XMLID_1_"><rect class="st0" height="298.7" id="XMLID_14_" width="512" x="0" y="106.7"/><polygon class="st1" id="XMLID_13_" points="256,139.9 252.3,151.3 240.2,151.3 250,158.4 246.2,169.9 256,162.8 265.8,169.9    262,158.4 271.8,151.3 259.7,151.3  "/><polygon class="st1" id="XMLID_12_" points="259.7,350.4 256,339 252.3,350.4 240.2,350.4 250,357.5 246.2,369 256,361.9    265.8,369 262,357.5 271.8,350.4  "/><polygon class="st1" id="XMLID_11_" points="156.4,262.3 166.2,269.4 162.5,258 172.2,250.9 160.2,250.9 156.4,239.4 152.7,250.9    140.7,250.9 150.4,258 146.7,269.4  "/><polygon class="st1" id="XMLID_10_" points="206.2,153.2 202.5,164.7 190.4,164.7 200.2,171.7 196.5,183.2 206.2,176.1 216,183.2    212.2,171.7 222,164.7 210,164.7  "/><polygon class="st1" id="XMLID_9_" points="169.8,189.6 166.1,201.1 154,201.1 163.8,208.2 160,219.6 169.8,212.6 179.5,219.6    175.8,208.2 185.6,201.1 173.5,201.1  "/><polygon class="st1" id="XMLID_8_" points="173.5,300.7 169.8,289.2 166.1,300.7 154,300.7 163.8,307.7 160,319.2 169.8,312.1    179.5,319.2 175.8,307.7 185.6,300.7  "/><polygon class="st1" id="XMLID_7_" points="210,337.1 206.2,325.6 202.5,337.1 190.4,337.1 200.2,344.2 196.5,355.6 206.2,348.6    216,355.6 212.2,344.2 222,337.1  "/><polygon class="st1" id="XMLID_6_" points="371.3,250.9 359.3,250.9 355.6,239.4 351.8,250.9 339.8,250.9 349.5,258 345.8,269.4    355.6,262.3 365.3,269.4 361.6,258  "/><polygon class="st1" id="XMLID_5_" points="305.8,153.2 302,164.7 290,164.7 299.8,171.7 296,183.2 305.8,176.1 315.5,183.2    311.8,171.7 321.6,164.7 309.5,164.7  "/><polygon class="st1" id="XMLID_4_" points="336.2,208.2 332.5,219.6 342.2,212.6 352,219.6 348.3,208.2 358,201.1 345.9,201.1    342.2,189.6 338.5,201.1 326.4,201.1  "/><polygon class="st1" id="XMLID_3_" points="345.9,300.7 342.2,289.2 338.5,300.7 326.4,300.7 336.2,307.7 332.5,319.2 342.2,312.1    352,319.2 348.3,307.7 358,300.7  "/><polygon class="st1" id="XMLID_2_" points="309.5,337.1 305.8,325.6 302,337.1 290,337.1 299.8,344.2 296,355.6 305.8,348.6    315.5,355.6 311.8,344.2 321.6,337.1  "/></g></svg>